<?xml version="1.0" standalone="no"?>
<!DOCTYPE svg PUBLIC "-//W3C//DTD SVG 20010904//EN"
 "http://www.w3.org/TR/2001/REC-SVG-20010904/DTD/svg10.dtd">
<svg version="1.0" xmlns="http://www.w3.org/2000/svg"
 width="900.000000pt" height="900.000000pt" viewBox="0 0 900.000000 900.000000"
 preserveAspectRatio="xMidYMid meet">
<metadata>
Created by potrace 1.14, written by Peter Selinger 2001-2017
</metadata>
<g transform="translate(0.000000,900.000000) scale(0.100000,-0.100000)"
fill="#000000" stroke="none">
<path d="M4398 7623 c7 -3 16 -2 19 1 4 3 -2 6 -13 5 -11 0 -14 -3 -6 -6z"/>
<path d="M4288 7493 c6 -2 18 -2 25 0 6 3 1 5 -13 5 -14 0 -19 -2 -12 -5z"/>
<path d="M4265 7433 c-221 -19 -520 -83 -710 -151 -100 -36 -137 -52 -287
-121 -26 -11 -52 -21 -57 -21 -6 0 -11 -4 -11 -9 0 -5 -9 -13 -21 -16 -11 -4
-19 -9 -16 -11 2 -2 21 3 41 11 21 9 35 11 31 6 -10 -17 22 -13 39 4 23 24
153 36 166 16 10 -16 72 -24 80 -11 12 19 320 3 320 -16 0 -11 18 -14 80 -14
58 0 80 4 80 13 0 9 38 13 158 14 86 0 159 -3 162 -7 9 -13 160 -24 160 -11 0
7 28 11 80 11 72 0 80 -2 80 -19 0 -22 -14 -28 -52 -26 -16 1 -28 -2 -28 -7 0
-4 41 -8 91 -8 57 0 88 4 84 10 -4 7 68 10 208 10 118 0 242 3 276 6 58 7 61
6 61 -15 0 -22 2 -23 49 -25 16 0 32 -4 35 -7 13 -12 316 9 316 22 0 5 18 9
40 9 22 0 40 -4 40 -9 0 -5 18 -7 40 -4 26 4 40 2 40 -6 0 -6 18 -11 45 -11
38 0 44 -3 39 -17 -5 -15 -4 -15 4 -3 6 8 8 18 6 22 -8 12 11 9 24 -4 6 -6 15
-9 18 -5 4 3 -6 12 -22 19 -16 7 -31 16 -34 20 -6 8 -254 132 -299 150 -291
115 -544 177 -840 207 -94 10 -420 12 -516 4z m1505 -343 c0 -5 -8 -10 -17
-10 -15 0 -16 2 -3 10 19 12 20 12 20 0z m-330 -25 c0 -11 -11 -15 -40 -15
-29 0 -40 4 -40 15 0 11 11 15 40 15 29 0 40 -4 40 -15z"/>
<path d="M2686 7317 c3 -10 9 -15 12 -12 3 3 0 11 -7 18 -10 9 -11 8 -5 -6z"/>
<path d="M3360 7116 c0 -2 9 -6 20 -9 11 -3 20 -1 20 4 0 5 -9 9 -20 9 -11 0
-20 -2 -20 -4z"/>
<path d="M3520 7102 c0 -18 7 -20 75 -20 41 0 77 4 81 9 9 15 5 16 -78 24 -74
7 -78 6 -78 -13z"/>
<path d="M5218 7033 c12 -2 32 -2 45 0 12 2 2 4 -23 4 -25 0 -35 -2 -22 -4z"/>
<path d="M5760 7020 c0 -5 5 -10 11 -10 5 0 7 5 4 10 -3 6 -8 10 -11 10 -2 0
-4 -4 -4 -10z"/>
<path d="M5983 7023 c-15 -5 -17 -23 -4 -23 5 0 11 7 15 15 3 8 4 15 3 14 -1
0 -8 -3 -14 -6z"/>
<path d="M5808 7003 c6 -2 18 -2 25 0 6 3 1 5 -13 5 -14 0 -19 -2 -12 -5z"/>
<path d="M6030 7000 c0 -5 5 -10 11 -10 5 0 7 5 4 10 -3 6 -8 10 -11 10 -2 0
-4 -4 -4 -10z"/>
<path d="M6020 6970 c0 -5 5 -10 11 -10 5 0 7 5 4 10 -3 6 -8 10 -11 10 -2 0
-4 -4 -4 -10z"/>
<path d="M1913 6890 c0 -36 2 -50 4 -32 2 17 2 47 0 65 -2 17 -4 3 -4 -33z"/>
<path d="M2072 6900 c0 -14 2 -19 5 -12 2 6 2 18 0 25 -3 6 -5 1 -5 -13z"/>
<path d="M2308 6763 c7 -3 16 -2 19 1 4 3 -2 6 -13 5 -11 0 -14 -3 -6 -6z"/>
<path d="M6952 6750 c0 -14 2 -19 5 -12 2 6 2 18 0 25 -3 6 -5 1 -5 -13z"/>
<path d="M2218 6753 c7 -3 16 -2 19 1 4 3 -2 6 -13 5 -11 0 -14 -3 -6 -6z"/>
<path d="M7173 6735 c0 -8 4 -12 9 -9 5 3 6 10 3 15 -9 13 -12 11 -12 -6z"/>
<path d="M7040 6610 c-6 -11 -8 -20 -6 -20 3 0 10 9 16 20 6 11 8 20 6 20 -3
0 -10 -9 -16 -20z"/>
<path d="M6660 6616 c0 -2 8 -10 18 -17 15 -13 16 -12 3 4 -13 16 -21 21 -21
13z"/>
<path d="M7279 6593 c-13 -17 -13 -17 6 -3 11 8 22 16 24 17 2 2 0 3 -6 3 -6
0 -17 -8 -24 -17z"/>
<path d="M2233 6593 c9 -2 25 -2 35 0 9 3 1 5 -18 5 -19 0 -27 -2 -17 -5z"/>
<path d="M2080 6580 c0 -6 11 -8 28 -4 39 10 40 14 4 14 -18 0 -32 -5 -32 -10z"/>
<path d="M7234 6548 l-19 -23 23 19 c12 11 22 21 22 23 0 8 -8 2 -26 -19z"/>
<path d="M2140 6526 c0 -2 8 -10 18 -17 15 -13 16 -12 3 4 -13 16 -21 21 -21
13z"/>
<path d="M6861 6484 c0 -11 3 -14 6 -6 3 7 2 16 -1 19 -3 4 -6 -2 -5 -13z"/>
<path d="M7138 6466 c-21 -18 -38 -37 -38 -42 0 -5 4 -4 8 1 4 6 24 25 45 43
21 17 34 32 30 32 -4 -1 -25 -16 -45 -34z"/>
<path d="M1940 6465 c13 -14 26 -25 28 -25 3 0 -5 11 -18 25 -13 14 -26 25
-28 25 -3 0 5 -11 18 -25z"/>
<path d="M1361 6457 c-13 -21 -12 -21 5 -5 10 10 16 20 13 22 -3 3 -11 -5 -18
-17z"/>
<path d="M6700 6471 c0 -6 4 -13 10 -16 6 -3 7 1 4 9 -7 18 -14 21 -14 7z"/>
<path d="M7655 6436 c10 -14 19 -26 22 -26 7 0 -17 39 -28 46 -6 3 -3 -5 6
-20z"/>
<path d="M2199 6433 c-13 -16 -12 -17 4 -4 9 7 17 15 17 17 0 8 -8 3 -21 -13z"/>
<path d="M2263 6428 c-11 -13 -24 -30 -28 -38 -8 -16 -6 -14 34 33 14 15 22
27 19 27 -2 0 -14 -10 -25 -22z"/>
<path d="M6745 6420 c10 -11 20 -20 23 -20 3 0 -3 9 -13 20 -10 11 -20 20 -23
20 -3 0 3 -9 13 -20z"/>
<path d="M1331 6407 c-13 -21 -12 -21 5 -5 10 10 16 20 13 22 -3 3 -11 -5 -18
-17z"/>
<path d="M7066 6401 c-14 -16 -15 -23 -6 -38 10 -16 10 -16 5 4 -4 15 0 25 12
32 10 5 15 12 12 15 -3 4 -14 -3 -23 -13z"/>
<path d="M2165 6400 c-3 -5 -2 -10 4 -10 5 0 13 5 16 10 3 6 2 10 -4 10 -5 0
-13 -4 -16 -10z"/>
<path d="M6880 6375 c13 -14 26 -25 28 -25 3 0 -5 11 -18 25 -13 14 -26 25
-28 25 -3 0 5 -11 18 -25z"/>
<path d="M2042 6374 c10 -10 20 -16 22 -13 3 3 -5 11 -17 18 -21 13 -21 12 -5
-5z"/>
<path d="M6816 6333 c58 -73 76 -90 38 -37 -44 62 -71 94 -78 94 -3 0 15 -26
40 -57z"/>
<path d="M2152 6291 c-28 -37 -52 -72 -52 -75 0 -7 87 104 104 132 18 30 -3 7
-52 -57z"/>
<path d="M7031 6318 c-13 -20 -12 -22 1 -11 8 7 18 10 22 6 4 -4 4 0 0 10 -8
21 -6 21 -23 -5z"/>
<path d="M1246 6258 c-15 -29 -21 -45 -13 -36 8 10 17 15 21 11 4 -4 4 1 0 11
-6 15 -4 17 6 11 9 -5 11 -4 6 4 -4 6 -2 19 5 27 6 8 10 17 7 19 -3 3 -17 -19
-32 -47z"/>
<path d="M6940 6306 c0 -2 8 -10 18 -17 15 -13 16 -12 3 4 -13 16 -21 21 -21
13z"/>
<path d="M6995 6290 c-3 -5 -1 -10 4 -10 6 0 11 5 11 10 0 6 -2 10 -4 10 -3 0
-8 -4 -11 -10z"/>
<path d="M6895 6230 c10 -11 20 -20 23 -20 3 0 -3 9 -13 20 -10 11 -20 20 -23
20 -3 0 3 -9 13 -20z"/>
<path d="M7800 6180 c11 -23 19 -44 16 -49 -3 -4 1 -8 9 -8 10 0 7 13 -11 49
-13 26 -27 48 -29 48 -3 0 4 -18 15 -40z"/>
<path d="M1203 6183 c-3 -10 -8 -22 -11 -27 -3 -5 0 -6 5 -3 11 7 25 47 17 47
-3 0 -7 -8 -11 -17z"/>
<path d="M6941 6163 c33 -56 45 -68 54 -52 5 7 4 10 -1 6 -6 -3 -22 14 -38 39
-34 53 -47 59 -15 7z"/>
<path d="M2059 6163 c-13 -16 -12 -17 4 -4 9 7 17 15 17 17 0 8 -8 3 -21 -13z"/>
<path d="M1176 6123 c-6 -14 -5 -15 5 -6 7 7 10 15 7 18 -3 3 -9 -2 -12 -12z"/>
<path d="M2030 6120 c-6 -11 -8 -20 -6 -20 3 0 10 9 16 20 6 11 8 20 6 20 -3
0 -10 -9 -16 -20z"/>
<path d="M7842 6100 c0 -28 14 -65 20 -55 3 6 0 24 -7 40 -7 17 -13 23 -13 15z"/>
<path d="M7015 6090 c-4 -6 -11 -7 -17 -4 -6 4 -9 3 -6 -2 3 -5 25 -40 48 -79
45 -74 138 -259 182 -362 l26 -61 -25 -91 -25 -90 -40 16 c-21 8 -41 13 -44
11 -3 -3 7 -19 21 -36 33 -39 32 -59 -4 -79 l-29 -17 24 -19 c32 -25 30 -47
-6 -82 -16 -16 -30 -34 -30 -42 0 -20 34 -33 74 -26 38 6 44 -2 24 -30 -17
-22 -141 -82 -146 -69 -8 26 -31 44 -60 46 -18 1 -31 -3 -31 -8 4 -38 -14 -46
-53 -25 -17 9 -18 13 -7 20 32 20 -12 8 -48 -13 l-38 -23 36 -5 c19 -4 40 -9
47 -13 6 -5 25 -1 41 8 20 10 32 11 36 4 5 -7 11 -6 20 1 11 9 29 4 77 -22 61
-32 63 -34 60 -68 -2 -19 -11 -46 -20 -60 -9 -14 -15 -31 -14 -38 2 -10 -3
-12 -18 -7 -20 6 -19 5 4 -32 38 -59 69 -91 99 -104 15 -6 27 -15 27 -20 0
-14 -71 -29 -140 -30 -49 0 -60 -2 -42 -9 12 -5 22 -12 22 -15 0 -4 -6 -3 -12
1 -9 5 -9 2 1 -9 12 -15 11 -17 -7 -17 -41 0 -51 9 -42 41 10 35 4 39 -43 33
-21 -2 -37 0 -37 6 0 5 -5 10 -11 10 -5 0 -7 -4 -4 -10 4 -6 -2 -7 -17 -1 -12
4 -25 19 -28 32 -4 14 -13 23 -23 23 -9 -1 -17 2 -17 6 0 5 -3 17 -7 27 -6 16
-5 16 11 4 15 -12 17 -12 14 0 -2 8 -11 20 -21 27 -10 8 -17 23 -15 35 2 18
11 22 51 24 37 3 47 0 41 -9 -4 -7 3 -2 16 10 12 13 24 38 25 55 2 18 4 41 5
52 l1 20 9 -20 c8 -19 9 -19 9 3 1 15 -5 22 -17 22 -10 0 -22 4 -28 10 -12 12
-74 -26 -74 -46 0 -17 42 -19 71 -4 42 23 16 -9 -36 -44 -62 -41 -65 -42 -65
-20 0 9 -9 28 -21 42 -17 22 -19 35 -14 73 4 31 2 58 -8 82 -9 19 -18 65 -22
101 -4 36 -14 71 -21 77 -8 6 -14 17 -14 23 0 6 -9 12 -20 13 -66 5 -93 4
-103 -6 -15 -15 -57 -14 -57 2 0 7 16 45 35 86 45 93 45 105 1 97 -38 -7 -61
10 -46 34 6 8 10 30 10 47 0 28 -6 36 -40 53 -22 11 -40 22 -40 24 0 2 7 17
15 32 19 36 19 48 0 64 -7 6 -17 33 -20 58 -3 26 -13 66 -21 90 -17 45 -44 57
-44 19 0 -38 -30 -140 -47 -159 -10 -12 -14 -27 -10 -47 4 -20 1 -33 -9 -42
-11 -9 -14 -22 -10 -41 7 -34 -1 -58 -20 -58 -28 0 -63 -24 -69 -47 -4 -16 1
-36 15 -57 25 -42 26 -54 0 -31 -12 11 -20 13 -20 6 0 -26 32 -73 63 -92 l32
-20 -30 7 c-16 4 -36 11 -42 17 -9 6 -13 6 -13 -2 0 -6 -15 -17 -33 -24 -18
-8 -41 -22 -50 -32 -17 -16 -17 -18 -1 -30 15 -11 15 -12 1 -18 -11 -4 -21 1
-27 13 -8 14 -8 20 0 20 6 0 9 4 6 9 -4 5 -1 11 5 13 8 3 8 13 0 38 -8 27 -10
29 -7 8 2 -16 0 -28 -4 -28 -11 0 -21 -63 -11 -69 5 -3 10 -22 11 -41 3 -61 1
-82 -11 -75 -6 4 -8 13 -5 21 3 7 1 16 -5 20 -7 4 -6 10 1 19 8 9 8 20 2 31
-8 15 -11 12 -17 -14 -3 -18 -13 -39 -21 -47 -9 -8 -12 -19 -9 -25 9 -14 26
-12 24 3 -3 23 1 38 9 33 10 -6 8 -75 -2 -98 -5 -10 -14 -18 -22 -18 -19 0
-17 -17 4 -30 16 -10 16 -11 -2 -23 -10 -7 -28 -20 -40 -30 l-21 -17 25 5 c14
3 31 1 39 -4 12 -8 8 -15 -17 -36 -40 -33 -40 -45 -2 -45 17 0 30 -3 30 -6 0
-7 -45 -44 -73 -60 -24 -14 -6 -28 23 -19 26 8 28 -28 2 -47 -10 -7 -24 -22
-30 -33 -10 -18 -11 -16 -12 17 0 23 -6 40 -15 46 -18 9 -22 36 -11 69 5 14 2
26 -9 35 -56 46 -57 48 -50 99 6 44 4 55 -20 89 -24 34 -26 44 -20 92 5 42 2
62 -14 98 -11 25 -21 59 -21 77 0 17 -15 70 -34 118 l-33 87 -2 -65 c-1 -35
-11 -100 -23 -143 -15 -54 -23 -121 -27 -215 -6 -144 -16 -175 -53 -163 -30 9
-95 -6 -133 -32 -34 -23 -35 -23 -35 -3 0 13 -8 23 -21 26 -14 4 -18 11 -13
22 15 37 10 46 -24 43 -31 -3 -33 -2 -26 20 12 34 8 67 -9 86 -9 9 -19 30 -22
45 -9 35 -22 24 -32 -27 -10 -46 -27 -57 -38 -24 l-8 23 -4 -22 c-2 -12 0 -38
6 -57 9 -34 8 -36 -15 -36 -13 0 -24 -5 -24 -11 0 -6 -12 -9 -28 -8 -43 5 -52
-5 -39 -48 9 -27 9 -37 0 -40 -7 -3 -9 -11 -6 -19 4 -10 -19 -3 -66 21 -60 31
-78 36 -109 30 -58 -10 -170 -63 -249 -116 l-73 -49 -20 39 c-21 42 -63 81
-87 81 -28 0 -80 -65 -103 -127 -12 -35 -27 -60 -31 -57 -5 3 -17 22 -25 42
l-16 37 -22 -57 c-11 -32 -24 -58 -28 -58 -4 0 -10 15 -14 34 -3 19 -13 37
-21 40 -8 4 -13 13 -9 21 3 8 1 17 -4 20 -6 4 -10 14 -10 23 0 9 -8 36 -17 60
l-17 44 -13 -43 c-7 -24 -13 -56 -13 -70 0 -29 -27 -89 -40 -89 -5 0 -15 8
-22 18 -23 33 -66 55 -96 49 -23 -5 -31 0 -47 24 -28 43 -78 71 -109 63 -14
-3 -40 -22 -57 -42 -30 -34 -34 -35 -90 -33 -50 2 -67 -2 -114 -29 -30 -17
-55 -27 -55 -21 0 6 -6 8 -13 6 -6 -3 -18 4 -25 15 -9 15 -9 20 -1 20 7 0 2 8
-9 19 -12 10 -19 20 -17 23 3 3 -1 11 -10 18 -11 9 -15 9 -15 1 0 -7 -5 -9
-12 -5 -7 5 -9 2 -5 -9 6 -16 -18 -32 -34 -22 -5 4 -6 -7 -3 -24 6 -29 5 -30
-25 -26 -17 2 -35 7 -40 9 -5 3 -31 -12 -59 -34 -27 -22 -55 -40 -61 -40 -6 0
-19 18 -28 40 -10 22 -23 40 -30 40 -18 0 -26 19 -14 34 7 9 7 16 -2 25 -9 10
-8 15 6 25 21 16 22 26 2 26 -8 0 -22 18 -31 40 -9 22 -20 40 -24 40 -5 0 -14
-16 -20 -35 -6 -19 -20 -37 -31 -40 -21 -7 -25 -20 -9 -30 6 -3 10 -13 10 -22
0 -9 7 -24 16 -34 14 -16 14 -18 -6 -29 -18 -10 -24 -9 -31 1 -5 8 -7 19 -4
26 2 7 -2 18 -8 25 -7 7 -17 22 -21 33 -8 20 -8 19 -18 -2 -6 -13 -20 -25 -30
-29 -15 -4 -18 -12 -13 -31 4 -16 2 -22 -5 -18 -14 9 -13 -8 3 -24 10 -11 8
-13 -11 -8 -19 4 -21 3 -11 -9 8 -10 8 -18 1 -26 -6 -7 -11 -17 -11 -23 -1
-28 -81 -8 -81 20 0 8 -4 15 -10 15 -5 0 -10 6 -10 14 0 8 -7 16 -15 20 -8 3
-15 15 -15 26 0 11 -4 20 -10 20 -5 0 -10 9 -10 20 0 12 -10 40 -21 63 l-22
41 -17 -39 c-10 -22 -20 -48 -24 -57 -3 -10 -13 -18 -21 -18 -9 0 -13 4 -10
10 3 6 1 10 -5 10 -7 0 -10 7 -6 15 3 8 -1 20 -7 27 -7 7 -16 21 -20 31 -6 17
-9 16 -33 -8 -14 -14 -30 -22 -36 -19 -8 5 -9 -3 -5 -25 4 -20 3 -30 -3 -26
-14 9 -12 -9 2 -23 22 -22 -18 -14 -43 9 -13 11 -17 17 -9 13 13 -7 13 -6 1
10 -11 13 -12 19 -3 25 9 5 4 12 -15 21 -27 13 -27 14 -5 18 12 2 22 5 22 8 0
2 -17 27 -37 55 l-36 51 -15 -28 c-8 -16 -22 -37 -30 -47 -14 -16 -14 -20 -2
-27 8 -5 18 -6 22 -4 4 3 8 -2 8 -11 0 -8 -10 -20 -22 -25 -13 -5 -17 -9 -10
-9 19 -1 14 -21 -5 -22 -12 -1 -9 -4 7 -8 l25 -7 -30 -17 -30 -16 30 -1 30 -1
-25 -14 c-14 -8 -40 -14 -57 -15 -38 0 -44 20 -17 58 18 25 12 52 -10 52 -11
0 -13 8 -9 35 6 35 5 35 -26 29 l-31 -6 6 45 c5 37 3 50 -15 73 -11 15 -21 35
-21 45 0 31 -18 21 -25 -13 -11 -55 -16 -68 -26 -68 -5 0 -9 9 -9 20 0 11 -5
20 -11 20 -8 0 -9 -17 -4 -56 6 -54 6 -57 -14 -51 -15 3 -21 0 -21 -10 0 -12
-8 -14 -35 -10 -43 7 -50 -3 -35 -49 10 -29 10 -38 -1 -44 -10 -7 -9 -14 5
-35 10 -15 16 -28 14 -30 -2 -2 -28 -6 -58 -10 l-55 -7 -14 37 c-7 21 -34 59
-60 86 -40 41 -53 49 -84 49 -20 0 -37 4 -37 9 0 5 -10 11 -23 13 -19 3 -22 8
-19 44 3 38 1 42 -32 58 -40 19 -43 27 -21 50 17 17 20 36 5 36 -17 0 -12 31
30 181 53 193 115 353 205 533 41 81 69 144 62 138 -6 -5 -29 -8 -49 -6 -21 1
-40 -1 -43 -5 -2 -5 1 -9 8 -8 35 1 47 -5 47 -23 0 -11 -4 -20 -10 -20 -5 0
-7 8 -4 18 3 9 -2 6 -10 -8 -14 -23 -15 -23 -16 -5 -1 20 -1 20 -12 1 -8 -15
-8 -21 1 -24 8 -3 5 -9 -8 -19 -12 -8 -19 -18 -16 -23 10 -15 -53 -18 -297
-13 -224 5 -248 4 -248 -11 0 -13 -12 -16 -62 -16 -54 1 -61 2 -46 14 22 16
13 26 -23 26 -31 0 -38 12 -33 60 l4 35 -21 -25 c-20 -24 -20 -24 -9 -2 6 13
10 26 7 28 -11 12 -121 -292 -112 -313 2 -8 1 -12 -4 -9 -8 6 -34 -74 -71
-222 -129 -518 -142 -1096 -36 -1619 144 -707 472 -1330 971 -1842 612 -629
1345 -993 2230 -1108 215 -28 683 -25 900 5 340 48 623 121 909 236 1165 470
2017 1497 2256 2722 54 277 65 401 65 719 -1 243 -4 317 -23 455 -52 380 -156
754 -292 1052 -14 30 -35 28 -25 -2 3 -10 -1 -25 -10 -34 -9 -9 -12 -16 -7
-16 5 0 17 10 26 23 9 12 14 16 11 9 -4 -7 3 -28 15 -47 12 -19 17 -35 11 -35
-5 0 -15 8 -20 18 -6 9 -11 11 -11 5 0 -7 9 -18 20 -25 25 -16 27 -33 3 -23
-10 4 -28 9 -40 10 -21 3 -23 -1 -23 -36 l0 -39 -326 0 c-198 0 -323 4 -319 9
9 16 -15 24 -30 11 -12 -10 -15 -9 -15 4 0 11 5 14 12 10 7 -4 8 -3 4 5 -4 6
0 23 9 37 16 24 16 26 -2 22 -10 -2 -18 -12 -18 -22 0 -11 -6 -21 -13 -24 -7
-2 -10 2 -6 12 7 20 -6 43 -15 27 -4 -7 -17 6 -30 30 -17 30 -20 44 -12 52 6
6 11 15 11 21 0 5 -6 2 -13 -8 -13 -17 -14 -17 -30 8 -9 14 -17 30 -17 35 0 5
-6 11 -12 14 -10 3 -10 7 1 20 7 10 11 17 8 17 -3 0 -9 -5 -12 -10z m-5911
-236 c3 -8 2 -12 -4 -9 -6 3 -10 10 -10 16 0 14 7 11 14 -7z m762 -16 c-16
-22 -16 -22 -16 -1 0 12 6 23 13 26 19 7 20 0 3 -25z m6076 -7 c-4 -11 -7 -10
-13 5 -12 29 -10 36 5 22 7 -7 11 -19 8 -27z m-6842 -25 c0 -5 -7 -1 -15 10
-8 10 -14 24 -14 29 0 6 6 1 14 -9 8 -11 15 -24 15 -30z m698 -37 c-3 -8 -7
-3 -11 10 -4 17 -3 21 5 13 5 -5 8 -16 6 -23z m5482 9 c0 -18 -2 -20 -9 -8 -6
8 -7 18 -5 22 9 14 14 9 14 -14z m-5491 -40 c1 -5 -3 -8 -9 -8 -5 0 -10 12 -9
28 0 24 1 25 9 7 5 -11 9 -23 9 -27z m4866 -625 c-9 -37 -8 -37 -46 -18 l-33
17 30 13 c47 21 57 19 49 -12z m321 -73 c0 -12 -4 -16 -9 -11 -5 5 -6 14 -3
20 10 15 12 14 12 -9z m-4772 -35 c3 -8 1 -15 -4 -15 -6 0 -10 7 -10 15 0 8 2
15 4 15 2 0 6 -7 10 -15z m20 -48 c-3 -12 -11 -26 -16 -32 -5 -5 -4 4 1 20 10
28 10 29 -4 11 -15 -20 -15 -20 -15 0 0 13 7 20 20 21 17 2 20 -2 14 -20z
m312 -198 c4 -7 -1 -16 -11 -21 -14 -8 -15 -12 -4 -19 11 -7 11 -9 -3 -9 -23
0 -34 20 -17 31 11 7 9 9 -6 9 -17 0 -17 2 -5 10 20 13 37 12 46 -1z m159 1
c-3 -5 -11 -10 -16 -10 -6 0 -7 5 -4 10 3 6 11 10 16 10 6 0 7 -4 4 -10z
m-306 -34 c-2 -2 -14 -9 -26 -15 -19 -10 -23 -9 -23 4 0 10 9 15 27 15 14 0
24 -2 22 -4z m4331 -30 c0 -3 -4 -8 -10 -11 -5 -3 -10 -1 -10 4 0 6 5 11 10
11 6 0 10 -2 10 -4z m-4380 -16 c0 -5 -4 -10 -10 -10 -5 0 -10 5 -10 10 0 6 5
10 10 10 6 0 10 -4 10 -10z m4735 -107 c-5 -15 -4 -16 6 -5 7 6 22 12 34 12
17 0 16 -2 -8 -15 -22 -11 -33 -12 -53 -3 -23 11 -24 13 -7 19 29 12 36 10 28
-8z m126 -101 c43 -41 51 -54 46 -74 -4 -14 -17 -30 -29 -36 l-23 -11 23 0
c30 -1 28 -16 -8 -43 -35 -26 -36 -32 -11 -65 11 -13 17 -31 14 -39 -8 -21
-22 -17 -16 5 9 37 -51 71 -126 71 -15 0 -35 6 -46 13 -27 19 -65 27 -65 15 0
-6 -7 -8 -15 -4 -8 3 -15 2 -15 -3 0 -12 39 -21 46 -10 3 5 10 9 17 9 6 0 4
-6 -5 -12 -9 -7 -18 -25 -22 -40 -8 -33 -24 -37 -21 -5 1 12 0 14 -2 5 -2 -10
-9 -18 -15 -18 -7 0 -6 -5 2 -14 10 -13 8 -13 -14 -3 -23 11 -24 13 -8 31 13
14 14 20 4 23 -6 3 -9 9 -6 15 4 7 -5 8 -26 3 l-33 -7 6 36 c6 37 2 42 -23 26
-9 -6 -17 -5 -21 2 -4 7 -20 -2 -41 -23 -18 -19 -40 -33 -48 -33 -8 1 -20 2
-27 3 -23 2 -25 41 -3 76 13 21 19 43 15 54 -4 13 3 29 21 48 14 15 23 21 21
12 -4 -13 -1 -15 15 -11 18 4 20 2 15 -20 -5 -19 -2 -28 9 -32 8 -3 12 -10 9
-16 -4 -6 4 -6 19 1 15 7 32 29 41 53 16 38 30 55 47 56 4 0 3 -12 -3 -27 -8
-22 -8 -26 2 -16 10 10 17 9 31 -4 16 -14 18 -15 13 -1 -4 9 1 18 11 22 24 9
37 -7 22 -26 -15 -18 -64 -36 -54 -20 3 6 2 13 -3 17 -6 3 -8 -4 -5 -17 11
-48 12 -93 2 -99 -7 -4 -7 -9 1 -13 6 -4 11 -2 11 3 0 6 11 11 24 11 14 0 27
4 31 9 7 12 42 6 61 -9 18 -15 35 -4 27 18 -6 15 -5 15 10 3 10 -8 20 -11 24
-7 3 3 2 6 -3 6 -5 0 -25 14 -44 30 -19 17 -43 33 -52 36 -19 6 -24 29 -8 39
5 3 7 0 4 -9 -7 -18 31 -42 41 -26 4 6 3 10 -2 9 -19 -3 -33 2 -33 12 0 5 6 7
12 3 7 -5 3 5 -10 20 -35 46 -28 71 12 41 27 -21 57 -19 63 4 8 30 53 11 114
-47z m-2611 -301 l225 -8 -315 -4 c-292 -3 -302 -4 -140 -9 119 -4 16 -7 -320
-9 -1125 -6 -1552 -11 -1561 -16 -27 -17 12 -21 239 -22 277 -2 412 -11 391
-24 -8 -5 -26 -9 -41 -9 -18 0 -28 -5 -28 -14 0 -8 12 -17 28 -19 15 -3 -8 -4
-50 -3 -42 2 -75 -1 -73 -5 7 -10 -25 -20 -37 -12 -6 3 -8 2 -5 -4 4 -6 0 -19
-8 -29 -13 -18 -15 -18 -47 14 -20 18 -38 28 -43 24 -6 -5 -43 -21 -83 -36
-71 -25 -77 -26 -165 -15 -75 8 -97 15 -116 34 -25 24 -25 24 -5 46 21 24 27
69 8 69 -21 0 -77 52 -64 60 14 9 1910 1 2210 -9z m2534 -21 c19 0 96 -75 96
-93 0 -13 -5 -11 -25 7 -14 13 -25 28 -25 35 0 6 -5 11 -11 11 -5 0 -7 -4 -4
-10 8 -13 -1 -13 -27 1 -21 11 -21 11 1 -25 13 -20 20 -43 17 -51 -8 -22 -32
-10 -112 55 -8 6 -14 3 -17 -11 -3 -10 -1 -22 4 -25 18 -11 8 -21 -16 -16 -14
2 -22 8 -19 13 3 5 1 9 -5 9 -5 0 -13 -5 -16 -10 -4 -6 -12 -7 -18 -3 -8 5 -8
2 0 -9 7 -8 10 -18 6 -21 -9 -10 -25 -9 -19 1 2 4 -3 16 -11 27 -15 20 -15 20
-8 -2 5 -18 1 -24 -20 -29 -19 -5 -32 -1 -51 17 -13 12 -24 28 -24 35 0 6 -6
14 -14 17 -26 10 -7 47 23 47 15 0 33 6 40 13 10 10 14 9 22 -5 19 -35 46 -40
88 -18 48 24 55 25 47 5 -3 -8 -1 -15 4 -15 6 0 10 5 10 11 0 5 5 7 12 3 8 -5
9 -2 5 9 -4 11 -1 17 8 17 8 0 15 -6 16 -12 0 -7 5 1 11 17 6 17 13 24 16 18
2 -7 9 -13 16 -13z m-5244 0 c0 -5 -11 -10 -25 -10 -14 0 -25 5 -25 10 0 6 11
10 25 10 14 0 25 -4 25 -10z m1335 -90 c3 -5 1 -10 -4 -10 -6 0 -11 5 -11 10
0 6 2 10 4 10 3 0 8 -4 11 -10z m-85 -15 c0 -8 -4 -15 -10 -15 -5 0 -7 7 -4
15 4 8 8 15 10 15 2 0 4 -7 4 -15z m3929 -41 c10 -9 -45 -3 -59 6 -11 7 -5 8
20 4 19 -4 37 -8 39 -10z m-3904 -34 c-27 -12 -35 -12 -35 0 0 6 12 10 28 9
24 0 25 -1 7 -9z m108 3 c-13 -2 -33 -2 -45 0 -13 2 -3 4 22 4 25 0 35 -2 23
-4z m-83 -23 c0 -5 -7 -7 -15 -4 -8 4 -15 8 -15 10 0 2 7 4 15 4 8 0 15 -4 15
-10z m-205 -51 c39 0 99 1 135 4 36 2 48 3 28 0 -21 -2 -38 -8 -38 -14 0 -5 5
-9 11 -9 6 0 9 -17 7 -42 -3 -39 -6 -43 -32 -46 -21 -3 -26 -6 -16 -12 8 -5
12 -12 9 -15 -11 -10 -38 6 -44 26 -4 10 -17 22 -30 25 -24 6 -201 -36 -264
-62 -27 -11 -54 -14 -102 -9 -55 6 -75 3 -113 -14 -28 -12 -46 -26 -46 -36 0
-16 25 -17 303 -12 199 4 291 2 270 -4 -18 -5 -33 -11 -33 -12 0 -1 39 -2 87
-1 60 1 68 0 25 -3 -36 -2 -60 -8 -57 -13 6 -10 -17 -14 -70 -12 -24 1 -26 0
-11 -6 19 -8 19 -9 1 -16 -10 -3 -23 -2 -29 4 -5 5 -15 10 -20 10 -6 0 -4 -5
4 -11 11 -8 6 -9 -20 -5 -23 4 -30 3 -21 -3 11 -7 5 -11 -22 -16 -20 -4 -46
-16 -58 -26 -12 -10 -33 -19 -46 -19 -12 0 -32 -9 -43 -20 -25 -25 -31 -25
-24 -2 4 11 3 13 -3 5 -5 -7 -27 -17 -48 -23 l-40 -10 40 5 c28 3 35 2 25 -5
-8 -5 -34 -10 -57 -10 -23 0 -45 -4 -48 -10 -3 -5 -19 -7 -34 -4 -16 4 -32 1
-35 -5 -9 -14 28 -14 109 -1 71 11 137 39 128 53 -4 6 -1 7 6 2 11 -6 105 28
121 45 3 3 12 6 20 7 8 0 49 10 91 21 49 13 108 21 165 21 211 0 432 47 471
100 10 14 15 14 50 -5 40 -23 99 -43 75 -26 -33 23 34 71 143 101 66 19 234
25 324 12 45 -7 157 -14 247 -17 138 -3 168 -1 180 11 14 14 64 22 64 10 0 -3
-10 -10 -22 -15 -22 -8 -22 -9 5 -9 19 -1 27 4 28 17 1 16 2 16 6 0 5 -18 33
-25 33 -9 0 5 15 10 33 10 26 0 815 -68 962 -82 22 -3 -52 -3 -165 -2 -113 2
-209 4 -215 4 -5 1 -43 -1 -83 -5 -65 -6 -77 -4 -102 15 -36 26 -86 28 -99 3
-9 -16 -29 -18 -213 -21 -112 -1 -239 -6 -283 -10 -64 -7 -38 -8 137 -10 147
-1 219 -5 224 -12 3 -6 0 -15 -7 -20 -15 -9 -14 -10 21 -27 20 -10 -82 -11
-482 -9 -280 2 -508 0 -508 -4 0 -15 90 -19 420 -19 389 0 510 -6 510 -26 0
-7 -10 -15 -22 -17 -13 -2 2 -6 32 -7 30 -2 69 -4 85 -5 17 -1 127 -3 245 -5
275 -4 169 -17 -158 -19 -205 -1 -223 -2 -220 -18 2 -11 18 -21 41 -26 42 -10
48 -24 13 -33 -17 -4 -22 -11 -19 -24 3 -10 0 -21 -6 -24 -25 -16 -8 -23 34
-14 25 5 52 7 60 4 22 -8 18 -34 -5 -41 -38 -12 -19 -43 23 -36 16 2 5 -18
-18 -33 -26 -17 -34 -38 -12 -35 31 4 37 -1 31 -26 -6 -23 2 -30 29 -26 18 3
4 -42 -24 -74 -24 -27 -29 -39 -21 -47 9 -9 18 -6 35 10 23 22 67 30 67 13 0
-5 -10 -16 -22 -24 -20 -14 -21 -18 -8 -27 18 -13 260 -4 274 11 6 5 -5 15
-28 24 -21 9 -36 18 -33 21 6 7 63 -22 72 -36 3 -5 20 -10 36 -10 26 0 28 2
20 18 -6 10 -8 28 -4 40 4 17 -1 22 -31 27 -53 10 -43 33 12 26 6 -1 12 7 12
17 0 11 7 25 15 32 29 24 18 50 -31 71 -45 20 -55 44 -18 44 24 0 103 -37 104
-49 0 -4 -10 -6 -22 -3 -21 5 -21 5 -6 -7 10 -7 15 -20 12 -32 -3 -11 3 -28
15 -41 26 -28 26 -44 1 -76 -11 -14 -20 -32 -20 -40 0 -9 -6 -18 -12 -21 -7
-3 53 -3 135 0 81 4 147 4 147 1 0 -6 -80 -23 -157 -32 -48 -6 -52 -9 -48 -28
4 -16 -4 -33 -30 -60 -19 -20 -35 -41 -35 -45 0 -5 16 -22 35 -39 27 -24 35
-39 35 -66 0 -20 9 -46 23 -63 20 -26 22 -39 22 -156 0 -71 3 -128 8 -128 4 0
7 -4 7 -9 0 -4 -11 -7 -25 -6 -18 2 -25 -2 -26 -13 0 -11 -2 -12 -6 -4 -2 6
-13 12 -24 12 -10 0 -19 5 -19 10 0 6 -9 10 -20 10 -11 0 -20 5 -20 11 0 8
-25 10 -77 7 -43 -3 -61 -3 -40 -1 20 2 37 8 37 14 0 5 -85 10 -207 10 -115 1
-287 4 -383 7 -96 3 -276 5 -400 5 -699 -2 -1017 -7 -1032 -15 -10 -5 -18 -16
-18 -24 0 -13 -2 -13 -22 0 -33 23 -578 24 -622 1 -38 -20 -116 -20 -116 0 0
10 -10 15 -32 15 -18 0 -44 3 -57 7 -18 4 -22 3 -19 -8 3 -8 11 -13 17 -11 7
1 10 -2 6 -8 -3 -5 -1 -10 6 -10 7 0 10 -3 7 -6 -4 -3 -16 -1 -27 6 -14 7 -21
7 -21 0 0 -5 5 -10 10 -10 6 0 10 -5 10 -11 0 -6 -16 2 -35 18 -23 18 -33 35
-31 49 1 12 -3 21 -10 21 -7 0 -10 -5 -7 -11 3 -6 -15 9 -41 34 -25 24 -44 51
-41 58 2 7 0 10 -5 7 -6 -4 -21 6 -34 22 -13 15 -34 39 -46 53 -110 126 -356
527 -336 548 4 4 118 7 252 7 134 0 240 1 235 3 -6 2 -5 15 1 33 14 40 3 79
-22 79 -11 0 -20 4 -20 9 0 5 12 6 28 2 15 -5 26 -13 24 -20 -1 -6 10 -11 25
-10 24 0 25 2 9 8 -14 5 -16 10 -8 15 7 4 10 11 7 15 -8 14 57 22 72 10 7 -7
16 -9 20 -5 3 3 1 6 -5 6 -7 0 -12 5 -12 10 0 6 17 11 38 11 20 1 30 3 21 6
-9 2 -142 -7 -295 -21 -154 -14 -315 -28 -360 -32 l-81 -6 -15 38 c-9 22 -15
40 -14 40 7 7 140 15 401 24 170 6 313 14 318 19 6 6 -7 7 -30 4 -25 -3 -43
-1 -47 6 -4 6 -12 11 -17 11 -6 0 -8 -3 -6 -7 3 -5 -9 -8 -26 -9 -18 0 -98 -4
-179 -9 -133 -7 -148 -6 -148 9 0 9 -6 16 -14 16 -8 0 -23 3 -33 6 -11 3 -8 0
6 -9 22 -13 22 -14 5 -22 -11 -5 -50 -9 -89 -10 -54 -1 -73 2 -83 14 -10 14
-11 13 -5 -4 6 -17 5 -18 -9 -7 -14 11 -17 10 -21 -5 -4 -15 -5 -15 -6 3 0 11
-11 26 -24 31 -18 8 -30 33 -55 109 -17 55 -35 114 -38 133 l-7 34 79 -6 c187
-15 471 -19 551 -8 112 16 183 48 183 84 0 11 17 19 58 27 31 7 68 19 82 28
30 20 119 31 215 26 39 -2 102 -4 140 -5z m4374 -145 c-12 -49 -28 -104 -36
-121 -13 -33 -14 -33 -83 -33 -53 0 -70 3 -70 14 0 8 17 16 48 20 26 4 57 13
70 20 20 11 -7 15 -200 30 -123 10 -297 28 -387 42 -91 13 -169 24 -174 24 -5
0 -7 7 -3 15 3 10 -1 15 -14 15 -10 0 -22 5 -25 10 -3 6 3 10 14 10 11 0 22
-4 25 -8 3 -5 148 -7 323 -6 315 4 319 4 423 33 58 16 106 27 108 26 2 -1 -7
-42 -19 -91z m-2872 60 c-3 -3 -12 -4 -19 -1 -8 3 -5 6 6 6 11 1 17 -2 13 -5z
m1938 -4 c3 -5 1 -10 -4 -10 -6 0 -11 5 -11 10 0 6 2 10 4 10 3 0 8 -4 11 -10z
m-1798 -6 c-3 -3 -12 -4 -19 -1 -8 3 -5 6 6 6 11 1 17 -2 13 -5z m-1444 -21
c-7 -2 -19 -2 -25 0 -7 3 -2 5 12 5 14 0 19 -2 13 -5z m2442 -153 c0 -68 -4
-70 -79 -48 -52 15 -51 14 -32 34 22 22 16 37 -20 48 -70 21 -66 25 31 25
l100 1 0 -60z m986 35 c62 -8 115 -17 117 -20 3 -3 0 -5 -6 -5 -7 0 -12 -9
-12 -20 0 -20 -7 -20 -345 -20 l-345 0 0 34 c0 34 -1 35 -37 31 -33 -4 -34 -3
-13 5 l25 9 -25 -2 c-21 -2 -25 -8 -28 -39 -4 -42 -16 -46 -84 -28 -33 9 -44
7 -85 -15 -26 -14 -51 -25 -55 -25 -5 0 -8 28 -8 62 l0 61 394 -7 c253 -4 435
-12 507 -21z m-3441 -27 c0 -4 -17 -8 -37 -8 -28 0 -34 3 -23 10 17 11 60 9
60 -2z m110 2 c-19 -13 -30 -13 -30 0 0 6 10 10 23 10 18 0 19 -2 7 -10z
m3706 -20 c56 0 94 -4 94 -10 0 -6 -50 -10 -130 -10 -114 0 -129 2 -123 16 4
12 14 14 36 10 16 -3 72 -6 123 -6z m-1501 -60 c3 -5 1 -10 -4 -10 -6 0 -11 5
-11 10 0 6 2 10 4 10 3 0 8 -4 11 -10z m1396 -39 c-27 -17 9 -21 45 -6 48 20
75 20 67 -1 -5 -12 0 -15 23 -14 70 5 254 -1 254 -7 0 -5 -47 -9 -105 -10
l-104 -2 -56 -46 c-60 -48 -71 -52 -89 -32 -6 7 -44 21 -85 31 -70 18 -75 18
-87 1 -10 -13 -21 -16 -53 -10 -39 6 -69 34 -54 49 3 3 -54 6 -127 6 -103 0
-131 3 -122 12 7 7 63 13 152 16 77 3 140 8 140 13 0 5 48 9 107 8 59 0 101
-4 94 -8z m205 1 c-5 -8 -66 -4 -66 4 0 2 16 4 36 4 19 0 33 -4 30 -8z m169
-2 c-45 -11 -85 -11 -85 0 0 6 25 9 58 9 47 -1 52 -3 27 -9z m-1780 -30 c-3
-5 -12 -10 -18 -10 -7 0 -6 4 3 10 19 12 23 12 15 0z m1100 -57 c11 -7 16 -13
10 -13 -5 0 -254 0 -552 0 -537 1 -543 0 -563 -20 -13 -13 -19 -28 -15 -40 3
-10 1 -21 -5 -25 -6 -4 -10 4 -10 17 0 13 -9 31 -20 41 -17 14 -20 14 -20 2 0
-8 -4 -15 -9 -15 -5 0 -7 8 -4 19 4 17 -5 19 -134 23 -80 2 -146 9 -158 16
-15 9 148 11 720 9 561 -1 745 -5 760 -14z m-4168 -68 c0 -10 -6 -14 -14 -10
-8 3 -22 5 -31 5 -15 0 -15 2 -2 10 23 15 47 12 47 -5z m4641 -6 c2 -9 -4 -24
-13 -33 -15 -15 -11 -16 57 -18 97 -2 98 -2 98 -13 0 -6 -37 -13 -82 -16 -46
-3 -76 -6 -67 -7 20 -2 33 -32 20 -45 -5 -5 -45 -10 -89 -11 -61 -1 -78 2 -75
12 4 10 0 10 -21 1 -20 -9 -32 -9 -51 -1 -14 7 -30 12 -35 12 -12 0 -13 -77
-2 -84 5 -3 32 6 60 19 46 21 52 22 52 7 0 -30 -64 -72 -111 -72 -36 0 -40 -2
-29 -15 11 -13 8 -15 -13 -15 -22 0 -39 12 -43 30 -5 29 -31 60 -50 60 -18 0
-22 -4 -17 -16 4 -10 -1 -22 -11 -30 -10 -7 -15 -18 -11 -24 6 -9 2 -9 -14 -1
-27 15 -55 57 -48 74 3 8 -3 27 -14 43 -10 16 -19 37 -19 47 0 15 -11 17 -87
18 -49 1 -115 4 -148 8 l-60 6 100 8 c55 4 173 7 263 7 160 0 162 0 152 20 -8
15 -8 20 2 20 7 0 23 3 35 6 18 5 23 1 29 -20 6 -26 7 -26 100 -26 85 0 94 2
109 22 9 14 11 24 5 26 -5 2 -10 8 -10 14 0 16 35 4 38 -13z m-118 -309 c0 -5
9 -10 20 -10 22 0 27 -24 8 -36 -7 -4 -8 -3 -4 4 11 19 -49 15 -65 -4 -12 -14
-61 -44 -73 -44 -3 0 -3 6 0 14 3 8 0 17 -6 21 -7 4 10 18 42 35 58 30 78 35
78 20z m-1060 -96 c0 -8 -4 -14 -10 -14 -5 0 -10 9 -10 21 0 11 5 17 10 14 6
-3 10 -13 10 -21z m905 6 c22 -8 25 -13 15 -25 -17 -20 -3 -54 26 -61 14 -4
24 -13 24 -24 0 -10 3 -25 6 -34 4 -11 0 -16 -14 -16 -19 0 -20 -3 -10 -32 6
-18 16 -36 21 -39 5 -4 5 -15 -2 -28 -11 -19 -23 -26 -44 -22 -5 1 -6 -3 -2
-9 9 -14 -55 -90 -82 -96 -13 -4 -23 -10 -23 -16 0 -5 6 -6 13 -2 6 4 1 -5
-12 -19 -13 -15 -28 -24 -32 -21 -5 3 -6 -3 -2 -12 5 -15 2 -16 -26 -11 -24 5
-31 3 -28 -6 2 -6 9 -11 15 -10 15 4 4 -24 -12 -30 -18 -7 -42 8 -27 17 6 4 9
11 6 16 -3 5 2 40 10 79 9 39 15 83 13 98 l-3 28 -140 0 c-256 1 -355 5 -355
14 0 13 113 23 330 30 192 6 195 6 198 29 2 13 -2 22 -10 22 -9 0 -10 2 -2 8
11 6 19 47 14 65 -1 4 -3 21 -4 37 -1 30 7 39 19 20 10 -17 25 -11 25 10 0 13
11 25 33 34 17 8 33 15 34 15 1 1 14 -4 28 -9z m-177 -31 l27 -1 -30 -7 c-38
-9 -45 -5 -45 22 1 20 2 20 11 5 5 -10 22 -19 37 -19z m-704 -31 c19 -27 20
-39 4 -37 -7 1 -22 1 -33 0 l-20 -2 20 -11 c11 -6 33 -22 48 -35 l29 -23 -31
0 c-40 0 -39 -12 2 -44 27 -22 29 -26 12 -27 -11 -1 -28 -1 -37 0 -31 4 -20
-18 20 -38 35 -19 36 -21 15 -27 -25 -7 -31 -24 -9 -24 25 0 52 -52 31 -59 -5
-2 -18 -8 -29 -13 -18 -10 -17 -12 9 -34 22 -19 31 -21 42 -13 11 10 12 8 7
-5 -4 -10 -13 -15 -20 -12 -17 6 -18 -8 -4 -34 8 -16 7 -18 -4 -14 -11 4 -14
-1 -12 -21 3 -19 0 -23 -7 -16 -6 6 -43 11 -83 11 -69 0 -72 1 -78 25 -4 14
-4 31 0 38 3 7 -3 2 -13 -10 -18 -23 -18 -22 -18 51 0 60 4 79 20 96 16 17 19
34 18 75 -3 50 0 56 28 76 28 19 30 25 24 60 -5 31 -3 40 9 45 9 3 16 15 16
25 0 26 25 24 44 -3z m623 -403 c-4 -8 -11 -15 -17 -15 -6 0 -6 7 2 20 14 22
24 19 15 -5z m13 -40 c0 -8 -4 -15 -10 -15 -5 0 -10 7 -10 15 0 8 5 15 10 15
6 0 10 -7 10 -15z m-3240 -4 c0 -12 -127 -17 -367 -13 -115 2 -193 7 -193 12
0 6 108 10 280 10 165 0 280 -4 280 -9z m179 -7 c2 -2 -19 -4 -47 -4 -29 0
-52 4 -52 10 0 9 88 3 99 -6z m541 8 c0 -4 -89 -8 -197 -9 -133 -1 -199 -5
-201 -12 -2 -6 -10 -11 -18 -11 -9 0 -13 4 -10 9 8 13 -30 20 -71 14 -21 -4
-34 -2 -31 3 7 10 528 16 528 6z m53 1 c-7 -2 -19 -2 -25 0 -7 3 -2 5 12 5 14
0 19 -2 13 -5z m1147 -1 c0 -8 -1109 -6 -1118 3 -3 2 247 5 556 5 309 0 562
-4 562 -8z m535 -32 c-15 -29 -35 -40 -35 -19 0 5 4 8 9 5 4 -3 13 6 19 19 7
14 14 25 17 25 3 0 -1 -13 -10 -30z m840 10 c3 -6 -1 -7 -9 -4 -18 7 -21 14
-7 14 6 0 13 -4 16 -10z m-602 -36 c-6 -17 -20 -18 -26 -1 -8 22 4 39 19 27 7
-7 10 -18 7 -26z m414 -1 c-3 -10 -5 -4 -5 12 0 17 2 24 5 18 2 -7 2 -21 0
-30z m108 27 c3 -6 -1 -7 -9 -4 -18 7 -21 14 -7 14 6 0 13 -4 16 -10z m60 -10
c3 -5 1 -10 -4 -10 -6 0 -11 5 -11 10 0 6 2 10 4 10 3 0 8 -4 11 -10z m-2690
-90 c75 -9 73 -9 -285 -15 -328 -5 -970 6 -900 16 64 9 1113 8 1185 -1z
m-1334 -121 c85 -67 172 -136 193 -154 l39 -33 -38 -48 c-22 -27 -42 -53 -46
-58 -12 -14 -80 46 -73 67 5 16 -28 56 -47 57 -5 0 -125 -145 -212 -258 -8
-10 -7 -16 3 -22 14 -9 8 -22 -37 -77 l-18 -22 -87 68 -87 68 30 42 c23 30 37
41 54 39 18 -2 40 20 117 117 51 66 98 126 102 133 12 19 -34 53 -64 47 -17
-3 -34 3 -52 20 -16 13 -28 27 -28 31 0 10 81 104 89 104 4 0 77 -55 162 -121z
m4212 31 c20 -27 37 -53 37 -58 0 -17 -61 -53 -80 -47 -22 7 -73 -23 -67 -39
3 -6 49 -70 104 -142 79 -105 103 -130 115 -123 15 8 42 -18 71 -68 5 -7 -26
-37 -79 -78 -47 -36 -87 -65 -89 -63 -2 2 -17 21 -34 42 -24 29 -28 42 -20 52
13 16 16 12 -100 166 l-95 126 -29 -20 c-19 -14 -27 -27 -24 -39 4 -13 -5 -27
-27 -44 -18 -14 -36 -25 -39 -25 -4 0 -25 25 -48 56 l-43 56 34 26 c139 109
357 271 365 272 6 0 27 -22 48 -50z m-778 2 c483 -10 244 -19 -531 -21 -615
-1 -816 5 -654 20 91 8 800 9 1185 1z m-2758 -449 c49 -24 88 -52 107 -76 28
-35 31 -46 31 -110 0 -68 -3 -79 -60 -192 -74 -148 -114 -185 -200 -185 -99 0
-220 62 -273 140 -20 30 -23 44 -20 100 3 54 14 85 60 180 55 116 78 145 133
175 48 26 131 14 222 -32z m2857 -19 c9 -37 16 -68 14 -69 -2 -2 -20 -10 -41
-19 -31 -12 -42 -13 -57 -3 -16 9 -26 8 -55 -7 -43 -23 -55 -54 -29 -73 15
-11 41 -13 116 -7 92 6 99 5 140 -19 77 -45 108 -139 74 -220 -30 -72 -169
-158 -281 -174 l-43 -5 -22 66 c-12 37 -20 69 -19 70 2 2 24 13 47 25 42 21
44 22 57 4 13 -17 15 -17 51 2 47 25 63 49 48 73 -9 14 -31 18 -115 22 -120 6
-156 21 -195 80 -57 85 -38 169 50 224 57 36 195 93 232 95 6 1 19 -29 28 -65z
m-532 -16 c-17 -17 -205 -22 -392 -12 -143 9 -144 9 -65 15 44 3 168 6 275 7
155 2 192 -1 182 -10z m-1776 -168 l61 -12 -8 -42 c-4 -22 -22 -108 -39 -191
-19 -92 -29 -163 -25 -183 7 -40 43 -64 87 -60 48 5 70 53 112 257 20 96 38
176 40 178 4 4 146 -23 150 -29 2 -2 -17 -95 -41 -208 -47 -224 -65 -265 -133
-302 -53 -29 -189 -21 -265 16 -63 31 -90 62 -106 120 -13 47 -9 81 42 324 27
126 35 152 48 148 9 -3 43 -10 77 -16z m1653 -34 c14 -58 14 -66 -4 -66 -19 0
-20 10 16 -144 47 -202 47 -204 66 -202 15 1 20 -8 36 -76 7 -26 7 -26 -101
-52 -60 -14 -111 -26 -114 -26 -6 0 -28 79 -28 99 0 6 7 11 15 11 8 0 15 3 15
7 0 4 -17 80 -37 170 -32 142 -39 162 -57 165 -16 2 -23 14 -30 50 -5 27 -7
51 -3 54 6 6 177 50 203 53 7 1 17 -19 23 -43z m-590 -91 c53 -31 70 -62 76
-140 8 -85 -11 -129 -67 -160 l-37 -21 49 -61 c27 -34 59 -64 70 -68 26 -8 25
-17 -7 -66 -25 -38 -30 -41 -61 -35 -48 7 -89 42 -152 130 -78 108 -90 104
-90 -29 l0 -105 -75 0 -75 0 0 78 c0 44 -3 147 -7 230 -6 139 -8 152 -25 152
-15 0 -18 8 -18 61 l0 61 193 -4 c170 -3 196 -5 226 -23z"/>
<path d="M6714 4439 c-3 -6 -2 -15 3 -20 5 -5 14 0 21 11 10 17 10 20 -2 20
-8 0 -18 -5 -22 -11z"/>
<path d="M6704 4359 c-4 -7 -3 -9 4 -5 5 3 13 0 15 -6 4 -9 6 -10 6 -1 1 17
-16 25 -25 12z"/>
<path d="M6687 4333 c-4 -3 -7 -11 -7 -17 0 -6 5 -5 12 2 6 6 9 14 7 17 -3 3
-9 2 -12 -2z"/>
<path d="M6987 4333 c-3 -5 6 -9 19 -9 13 -1 21 2 18 7 -6 11 -31 12 -37 2z"/>
<path d="M7185 4320 c3 -5 8 -10 11 -10 2 0 4 5 4 10 0 6 -5 10 -11 10 -5 0
-7 -4 -4 -10z"/>
<path d="M7155 4290 c-3 -5 -1 -10 4 -10 6 0 11 5 11 10 0 6 -2 10 -4 10 -3 0
-8 -4 -11 -10z"/>
<path d="M6936 4081 c-12 -5 -15 -10 -9 -14 6 -4 16 0 23 8 14 17 13 17 -14 6z"/>
<path d="M7060 4075 c7 -8 17 -15 22 -15 6 0 5 7 -2 15 -7 8 -17 15 -22 15 -6
0 -5 -7 2 -15z"/>
<path d="M7111 4056 c-8 -10 -9 -16 -1 -21 5 -3 10 0 10 7 0 9 3 9 10 -2 5 -8
10 -10 10 -5 0 6 -4 16 -9 23 -6 10 -10 10 -20 -2z"/>
<path d="M6837 4053 c-8 -12 30 -49 40 -40 3 4 1 7 -6 7 -6 0 -15 10 -20 22
-4 12 -11 17 -14 11z"/>
<path d="M4778 3773 c7 -3 16 -2 19 1 4 3 -2 6 -13 5 -11 0 -14 -3 -6 -6z"/>
<path d="M3654 3629 c-7 -11 12 -29 31 -29 19 0 38 18 31 29 -4 6 -18 11 -31
11 -13 0 -27 -5 -31 -11z"/>
<path d="M3495 3599 c-10 -15 1 -23 20 -15 9 3 13 10 10 16 -8 13 -22 13 -30
-1z"/>
<path d="M2435 3490 c-17 -7 -15 -9 13 -9 17 -1 32 4 32 9 0 12 -17 12 -45 0z"/>
<path d="M2078 3483 c7 -3 16 -2 19 1 4 3 -2 6 -13 5 -11 0 -14 -3 -6 -6z"/>
<path d="M2078 3463 c18 -2 45 -2 60 0 15 2 0 4 -33 4 -33 0 -45 -2 -27 -4z"/>
<path d="M2828 3443 c7 -3 16 -2 19 1 4 3 -2 6 -13 5 -11 0 -14 -3 -6 -6z"/>
<path d="M2758 3433 c6 -2 18 -2 25 0 6 3 1 5 -13 5 -14 0 -19 -2 -12 -5z"/>
<path d="M2698 3423 c7 -3 16 -2 19 1 4 3 -2 6 -13 5 -11 0 -14 -3 -6 -6z"/>
<path d="M2648 3413 c6 -2 18 -2 25 0 6 3 1 5 -13 5 -14 0 -19 -2 -12 -5z"/>
<path d="M2573 3403 c9 -2 25 -2 35 0 9 3 1 5 -18 5 -19 0 -27 -2 -17 -5z"/>
<path d="M5215 2995 c-44 -8 -85 -14 -91 -14 -7 -1 -22 -19 -33 -42 -16 -31
-19 -44 -11 -54 8 -10 8 -19 0 -35 -18 -33 -6 -51 28 -44 17 4 32 1 36 -5 4
-6 16 -11 26 -11 17 0 18 -4 10 -26 -14 -37 -12 -64 5 -64 8 0 15 7 15 16 0
30 17 4 24 -36 3 -22 10 -40 14 -40 18 0 52 98 47 138 -3 38 -2 41 15 32 43
-23 47 3 7 48 -11 12 -15 22 -9 22 6 0 14 -4 17 -10 12 -19 45 -11 45 10 0 20
-2 26 -33 87 l-16 32 30 -6 c16 -3 29 -1 29 4 0 14 -64 13 -155 -2z m55 -189
c0 -12 -5 -7 -19 24 -11 24 -11 24 3 6 9 -11 16 -24 16 -30z"/>
<path d="M5048 2963 c6 -2 18 -2 25 0 6 3 1 5 -13 5 -14 0 -19 -2 -12 -5z"/>
<path d="M2413 2506 c4 -14 47 -21 47 -8 0 5 -11 12 -25 15 -16 3 -24 0 -22
-7z"/>
<path d="M2410 2481 c0 -5 7 -14 15 -21 12 -10 15 -10 15 3 0 8 -7 17 -15 21
-8 3 -15 2 -15 -3z"/>
<path d="M5535 2450 c-3 -5 -1 -10 4 -10 6 0 11 5 11 10 0 6 -2 10 -4 10 -3 0
-8 -4 -11 -10z"/>
<path d="M6588 3753 c7 -3 16 -2 19 1 4 3 -2 6 -13 5 -11 0 -14 -3 -6 -6z"/>
<path d="M6950 3470 c0 -12 8 -12 35 0 18 8 17 9 -7 9 -16 1 -28 -3 -28 -9z"/>
<path d="M6615 3265 c40 -19 65 -18 65 0 0 11 -12 15 -47 14 l-48 -1 30 -13z"/>
<path d="M6644 2781 c9 -14 83 -50 90 -44 15 16 3 33 -31 42 -47 13 -66 14
-59 2z"/>
<path d="M6703 2673 c9 -2 23 -2 30 0 6 3 -1 5 -18 5 -16 0 -22 -2 -12 -5z"/>
<path d="M6695 2643 c-45 -7 -54 -22 -17 -29 19 -4 29 -11 26 -18 -3 -6 1 -3
9 7 8 9 20 17 26 17 14 0 10 23 -5 25 -5 1 -22 0 -39 -2z"/>
<path d="M6580 2459 c0 -5 5 -7 10 -4 6 3 10 8 10 11 0 2 -4 4 -10 4 -5 0 -10
-5 -10 -11z"/>
<path d="M3069 1673 c-39 -33 -110 -178 -117 -238 -4 -36 -1 -45 23 -63 58
-46 100 -21 158 95 68 134 71 194 12 219 -43 18 -38 19 -76 -13z"/>
<path d="M4590 1295 l0 -75 50 0 c86 0 127 64 79 124 -18 22 -28 26 -75 26
l-54 0 0 -75z"/>
<path d="M1999 6073 c-8 -10 -21 -30 -28 -45 -8 -15 -18 -25 -22 -22 -5 3 -6
-2 -3 -11 6 -14 10 -11 26 12 24 35 50 83 45 83 -2 0 -10 -8 -18 -17z"/>
<path d="M1127 6019 c-15 -34 -26 -64 -23 -67 3 -3 10 6 15 19 8 20 10 21 10
5 1 -27 10 -15 16 20 2 16 7 41 11 57 10 42 1 32 -29 -34z"/>
<path d="M1166 5995 c-9 -26 -7 -32 5 -12 6 10 9 21 6 23 -2 3 -7 -2 -11 -11z"/>
<path d="M7185 5870 c-3 -5 -1 -10 4 -10 6 0 11 5 11 10 0 6 -2 10 -4 10 -3 0
-8 -4 -11 -10z"/>
<path d="M6930 5420 c0 -38 -45 -163 -67 -186 -12 -14 -23 -27 -23 -30 0 -9
55 -3 70 7 12 8 9 9 -12 5 -25 -6 -40 7 -20 16 4 2 15 20 25 41 15 33 22 38
45 35 15 -1 26 2 25 7 -6 28 -42 118 -43 105z m19 -86 c6 4 11 2 11 -4 0 -17
-33 -8 -37 10 -4 12 -3 13 5 1 5 -7 15 -10 21 -7z"/>
<path d="M6979 5295 c-6 -27 -1 -50 10 -50 8 0 16 -6 19 -14 3 -10 0 -12 -12
-8 -9 4 -16 2 -16 -3 0 -6 -9 -10 -20 -10 -11 0 -20 -4 -20 -9 0 -5 9 -7 20
-4 21 6 28 -11 9 -22 -6 -4 0 -20 17 -43 23 -30 25 -34 8 -28 -15 6 -16 5 -7
-5 7 -7 33 -14 58 -15 37 -1 45 2 45 17 0 21 -20 43 -72 75 -21 13 -38 27 -38
30 0 3 18 2 41 -1 l41 -6 -33 40 c-18 23 -36 41 -41 41 -5 0 -6 5 -3 10 3 6 4
10 1 10 -3 0 -6 -2 -7 -5z"/>
<path d="M6912 5194 c8 -14 -26 -68 -51 -80 -21 -11 -22 -13 -5 -22 11 -6 27
-7 42 -1 13 5 27 7 31 5 4 -3 8 5 8 17 2 18 0 19 -8 7 -9 -13 -10 -13 -7 0 3
8 15 18 29 22 21 6 20 7 -7 5 -31 -3 -37 5 -21 30 4 6 2 15 -4 19 -7 4 -10 3
-7 -2z"/>
<path d="M6960 5120 c-9 -6 -10 -10 -3 -10 6 0 15 5 18 10 8 12 4 12 -15 0z"/>
<path d="M6996 4988 c3 -4 12 -8 20 -8 8 0 13 -4 9 -9 -3 -5 -1 -12 5 -16 6
-4 8 -10 5 -15 -3 -5 -1 -11 4 -14 6 -4 8 7 6 24 -5 40 -12 49 -35 47 -10 -1
-16 -5 -14 -9z"/>
<path d="M6956 4971 c-3 -4 1 -17 10 -27 14 -18 15 -18 5 2 -6 12 -7 24 -4 28
3 3 4 6 0 6 -3 0 -8 -4 -11 -9z"/>
<path d="M6950 4900 c0 -5 5 -10 10 -10 6 0 10 5 10 10 0 6 -4 10 -10 10 -5 0
-10 -4 -10 -10z"/>
<path d="M6980 4861 c0 -11 5 -23 10 -26 6 -3 10 3 10 14 0 11 -4 23 -10 26
-5 3 -10 -3 -10 -14z"/>
<path d="M6844 4798 l-19 -23 25 20 c14 11 27 21 29 22 2 2 0 3 -6 3 -5 0 -18
-10 -29 -22z"/>
<path d="M6866 4783 c-6 -14 -5 -15 5 -6 7 7 10 15 7 18 -3 3 -9 -2 -12 -12z"/>
<path d="M6863 4745 c-3 -9 -3 -18 -1 -21 3 -3 8 4 11 16 6 23 -1 27 -10 5z"/>
<path d="M6988 4753 c7 -3 16 -2 19 1 4 3 -2 6 -13 5 -11 0 -14 -3 -6 -6z"/>
<path d="M6990 4610 c0 -5 5 -10 11 -10 5 0 7 5 4 10 -3 6 -8 10 -11 10 -2 0
-4 -4 -4 -10z"/>
</g>
</svg>
